<svg xmlns="http://www.w3.org/2000/svg" viewBox="0 0 138 80"><defs><style>.cls-1{isolation:isolate;}.cls-2{fill:#22a2a2;}.cls-3{fill:#008177;}</style></defs><g id="Layer_2" data-name="Layer 2"><g id="早わかりMD_ADシステムズのこと0106.jpg5" data-name="早わかりMD&amp;ADシステムズのこと0106.jpg5" class="cls-1"><g id="データ"><g id="flask-2"><path class="cls-2" d="M98,6.67h20A3.34,3.34,0,0,0,118,0H98a3.34,3.34,0,0,0,0,6.67Zm39.2,61.65L124.72,42.14C121.25,34.85,118,26.87,118,18.78V13.33h-6.67V20c.3,9,3.88,17.68,7.37,25l12.48,26.18a1.48,1.48,0,0,1-1.26,2.14h-5l-14.59-30H98.07C101,37,104.36,28.74,104.65,20l0-6.67H98v5.45c0,8.09-3.25,16.07-6.72,23.36L78.8,68.33A8.15,8.15,0,0,0,86.08,80h43.84a8.16,8.16,0,0,0,7.28-11.68Z"/></g><g id="book-15"><path class="cls-3" d="M36,8.12C27.18,2.63,13.75.42,0,0V53.14c11.81.36,23.38,2,32,6a9.63,9.63,0,0,0,8,0c8.62-4,20.19-5.63,32-6V0C58.25.42,44.82,2.63,36,8.12ZM33,52.83a102.13,102.13,0,0,0-27-5.4V6.32c15.47,1.17,22.58,4.39,27,7Zm33-5.4a102.23,102.23,0,0,0-27,5.4V13.32c4.36-2.59,11.49-5.83,27-7Z"/></g></g></g></g></svg>