<svg xmlns="http://www.w3.org/2000/svg" viewBox="0 0 82.2 119.98"><defs><style>.cls-1{isolation:isolate;}.cls-2{fill:#22a2a2;}</style></defs><g id="Layer_2" data-name="Layer 2"><g id="早わかりMD_ADシステムズのこと0106.jpg5" data-name="早わかりMD&amp;ADシステムズのこと0106.jpg5" class="cls-1"><g id="データ"><g id="シェイプ_11" data-name="シェイプ 11"><path class="cls-2" d="M27.14,100.44,35,92.78,22.68,79.24,13.06,90.11s-7.84,10,1.78,16.93l13.63,11.38a5,5,0,1,0,7.24-6.84Zm32.38-21.2L47.22,92.78l7.85,7.66-8.58,11.14a5,5,0,0,0,7.24,6.84L67.36,107c9.63-7,1.78-16.93,1.78-16.93Zm21.24-8.71L61,45.21S53.9,38,41.22,37.91H41c-12.69.08-19.73,7.3-19.73,7.3L1.44,70.53a5.44,5.44,0,1,0,8,7.38L22.79,65.52l.07,7H59.34l.07-7L72.77,77.91a5.44,5.44,0,1,0,8-7.38Zm-39.66-36A17.29,17.29,0,1,0,23.82,17.28,17.29,17.29,0,0,0,41.1,34.57Z"/></g></g></g></g></svg>