<svg xmlns="http://www.w3.org/2000/svg" viewBox="0 0 742 524"><defs><style>.cls-1{isolation:isolate;}.cls-2{font-size:20px;font-family:NotoSansJP-Bold-90ms-RKSJ-H, Noto Sans JP;letter-spacing:0.1em;}.cls-2,.cls-3{fill:#fff;}</style></defs><g id="Layer_2" data-name="Layer 2"><g id="早わかりMD_ADシステムズのこと0106.jpg5" data-name="早わかりMD&amp;ADシステムズのこと0106.jpg5" class="cls-1"><g id="システム"><g id="お客様"><text class="cls-2" transform="translate(67.22 66.57)">お客様</text></g><g id="保険会社"><text class="cls-2" transform="translate(598.22 66.57)">保険会社</text></g><g id="シェイプ_4" data-name="シェイプ 4"><path class="cls-3" d="M670,139.51V75H632.52V96.86H615.05v42.65h-6.13V145h67.16v-5.49ZM626.88,134h-6.19v-6.17h6.19Zm0-12.35h-6.19v-6.18h6.19Zm0-12.36h-6.19v-6.17h6.19Zm39.22,28.24H636.38V78.84H666.1ZM648.42,110h-6.88v6.86h6.88Zm12.52,0h-6.88v6.86h6.88ZM648.42,97.64h-6.88v6.87h6.88Zm12.52,0h-6.88v6.87h6.88ZM648.42,85.29h-6.88v6.86h6.88Zm12.52,0h-6.88v6.86h6.88Zm-12.52,37.06h-6.88v6.87h6.88Zm12.52,0h-6.88v6.87h6.88Z" transform="translate(0 0)"/></g><g id="保険代理店"><text class="cls-2" transform="translate(317.22 391.57)">保険代理店</text></g><g id="シェイプ_3" data-name="シェイプ 3"><path class="cls-3" d="M428.08,172.6H390.84a3.42,3.42,0,0,0-3.42,3.43v10.88h18.44v9.58h18.66a1,1,0,0,1,1,1v6.91a1,1,0,0,1-1,1H405.86v40.41H387.42v3.33a3.43,3.43,0,0,0,3.42,3.43h37.23a3.43,3.43,0,0,0,3.43-3.43V176A3.43,3.43,0,0,0,428.08,172.6Zm-3.83,8.28H394.46a1.2,1.2,0,0,1,0-2.39h29.79a1.2,1.2,0,0,1,0,2.39Zm-13.6,40.69v-4.78h14.89v4.78Zm0-7.92v-4.78h14.89v4.78Zm-34.19,33.89h-7.59V241H401V191.74H321.52V241h32.17v6.52H346.1a1.71,1.71,0,0,0-1.69,1.7v1.69a1.71,1.71,0,0,0,1.69,1.69h30.36a1.7,1.7,0,0,0,1.69-1.69v-1.69A1.7,1.7,0,0,0,376.46,247.54ZM327.55,235v-37.2H395V235Z" transform="translate(0 0)"/></g><g id="長方形_39" data-name="長方形 39"><path class="cls-3" d="M372,330a94,94,0,1,1-94,94,94.11,94.11,0,0,1,94-94m0-6A100,100,0,1,0,472,424,100,100,0,0,0,372,324Z" transform="translate(0 0)"/></g><g id="長方形_39_のコピー_3" data-name="長方形 39 のコピー 3"><path class="cls-3" d="M100,6A94,94,0,1,1,6,100,94.11,94.11,0,0,1,100,6m0-6A100,100,0,1,0,200,100,100,100,0,0,0,100,0Z" transform="translate(0 0)"/></g><g id="シェイプ_6" data-name="シェイプ 6"><path class="cls-3" d="M57.54,89.17a7.09,7.09,0,1,0-7.08-7.08A7.08,7.08,0,0,0,57.54,89.17Zm31.83,22.68a5.7,5.7,0,1,0-5.7-5.7A5.7,5.7,0,0,0,89.37,111.85Zm26.95,0a5.7,5.7,0,1,0-5.7-5.7A5.7,5.7,0,0,0,116.32,111.85Zm30-15.3a5.46,5.46,0,1,0-6.54-4.08A5.45,5.45,0,0,0,146.36,96.55Zm1.87,1.31H143c-1.4,0-3.52,1.2-4.78,2.47l-8.89,8.53a2.67,2.67,0,0,0-.56.77,2.89,2.89,0,0,0-1.72.4l-5.49,3.23H114a6.63,6.63,0,0,0-4.2,1.7l-7.29,6.42L95.54,115a6.64,6.64,0,0,0-4.7-1.74H83.62L77.24,110a3.24,3.24,0,0,0-1.28-.36,3.24,3.24,0,0,0-.46-1.16L66.63,94.61a8.62,8.62,0,0,0-7.42-4H53A7.45,7.45,0,0,0,45.51,98v13.34a6.6,6.6,0,0,0,4.12,6.12l.57,23.76a3.74,3.74,0,0,0,7.48-.15V117.74h1v23.35a3.74,3.74,0,0,0,7.48.15l1.31-32.63,2.58,3.55a3.3,3.3,0,0,0,2.44,1.35,3.26,3.26,0,0,0,1.73,2.32l7.7,3.94v21.92a3.3,3.3,0,0,0,6.6,0V130.18h1.58v11.5a3.31,3.31,0,1,0,6.61,0V125l3.32,3.06a3.28,3.28,0,0,0,2.22.87h.32a3.24,3.24,0,0,0,2.19-.85l2.92-2.62L105.61,136h3.63v6.25a2.75,2.75,0,0,0,5.5,0V136h1.64v6.25a2.75,2.75,0,1,0,5.49,0V136h3.64l-3.18-16.39,7.66-4.51a2.94,2.94,0,0,0,1.2-1.34,2.82,2.82,0,0,0,1.9-.67l3.89-3.29L138.13,142a2.9,2.9,0,1,0,5.8-.13v-19h.79v19a2.81,2.81,0,0,0,2.69,2.93h.21a2.81,2.81,0,0,0,2.9-2.7V142l.44-20.89a5.73,5.73,0,0,0,3.53-5.29V104.31A6.45,6.45,0,0,0,148.23,97.86Z" transform="translate(0 0)"/></g><g id="長方形_39_のコピー_4" data-name="長方形 39 のコピー 4"><path class="cls-3" d="M642,6a94,94,0,1,1-94,94A94.11,94.11,0,0,1,642,6m0-6A100,100,0,1,0,742,100,100,100,0,0,0,642,0Z" transform="translate(0 0)"/></g><g id="シェイプ_5" data-name="シェイプ 5"><path class="cls-3" d="M331,404.5v23.89h3.52V464.5h75V428.39H413V404.5Zm55.14,56.35h-8.78V439.7h8.78Zm12.37,0h-8.78V439.7h8.78Zm7.39.06H402.1V436.1H373.75v24.81H338.11V428.39h67.78Zm3.52-36.11H334.59v-2.92h74.82Zm0-13.79H334.59V408.1h74.82Z" transform="translate(0 0)"/></g></g></g></g></svg>