<svg xmlns="http://www.w3.org/2000/svg" viewBox="0 0 88.77 99.99"><defs><style>.cls-1{isolation:isolate;}.cls-2{fill:#008177;}.cls-3{fill:#22a2a2;}</style></defs><g id="Layer_2" data-name="Layer 2"><g id="早わかりMD_ADシステムズのこと0106.jpg5" data-name="早わかりMD&amp;ADシステムズのこと0106.jpg5" class="cls-1"><g id="データ"><g id="シェイプ_8" data-name="シェイプ 8"><path class="cls-2" d="M17.66,16.36A8.2,8.2,0,1,0,10.32,9,8.21,8.21,0,0,0,17.66,16.36Zm14.16,2.23H5.17A5.17,5.17,0,0,0,0,23.75v31.1a3.52,3.52,0,0,0,2.94,3.52,3.45,3.45,0,0,0,4-3.41V32.23H8.42V95.37A4.54,4.54,0,0,0,12.2,99.9a4.45,4.45,0,0,0,5.11-4.39V60.23h2.37V95.51a4.45,4.45,0,0,0,8.9,0V32.23h1.5V54.85a3.52,3.52,0,0,0,3,3.52A3.46,3.46,0,0,0,37,55V23.75A5.17,5.17,0,0,0,31.82,18.59Z"/></g><g id="シェイプ_9" data-name="シェイプ 9"><path class="cls-3" d="M64.06,16.37A8.21,8.21,0,1,0,56.74,9,8.21,8.21,0,0,0,64.06,16.37Zm24.51,35L77.71,21.86a4.93,4.93,0,0,0-4.63-3.23H56.72a4.93,4.93,0,0,0-4.63,3.23L41.23,51.4a3.19,3.19,0,0,0,1.44,3.93A3.09,3.09,0,0,0,47,53.65l8.17-22.21,1.93,7L43.55,67.75H56.24V96.32a3.67,3.67,0,1,0,7.33,0V67.75h2.66V96.32A3.67,3.67,0,0,0,69.9,100h0a3.66,3.66,0,0,0,3.66-3.67V67.75h12.7L72.7,38.48l1.94-7L82.8,53.65a3.09,3.09,0,0,0,4.33,1.68A3.18,3.18,0,0,0,88.57,51.4Z"/></g></g></g></g></svg>