<svg xmlns="http://www.w3.org/2000/svg" viewBox="0 0 127.38 163.46"><defs><style>.cls-1{isolation:isolate;}.cls-2{fill:#22a2a2;}</style></defs><g id="Layer_2" data-name="Layer 2"><g id="早わかりMD_ADシステムズのこと0106.jpg5" data-name="早わかりMD&amp;ADシステムズのこと0106.jpg5" class="cls-1"><g id="データ"><g id="シェイプ_13" data-name="シェイプ 13"><path class="cls-2" d="M123.08,128.44c-4-6-10.1-9.31-15.83-11.47-2.87-1.08-5.68-1.87-8.15-2.55s-4.61-1.23-6.06-1.78a33,33,0,0,1-7-3.45,9.05,9.05,0,0,1-2.06-1.88,3.46,3.46,0,0,1-.34-.59l.19-9.79,1.12-1.55c8.3-7.9,20.38-20.91,22.18-35.76,1.12-9.2,1-23.61-5.1-36C96.62,10.26,83.46.59,63.46.05l-.59,0-.4,0c-.7,0-1.38,0-2.1,0-14.66.3-26,6.75-32.59,17-10,13.48-10.45,31.72-9.13,42.64C20.09,71.46,28.05,82.11,35.43,90c.73.87,1.48,1.7,2.27,2.49a13,13,0,0,0,1,.9c1.82,1.8,3.5,3.36,5,4.72l.07,8.66a3.93,3.93,0,0,1-.37.6,12.87,12.87,0,0,1-3.76,3,33,33,0,0,1-5.26,2.36c-2,.7-5.14,1.42-8.69,2.44-5.35,1.54-11.66,3.76-16.8,8.16a24.64,24.64,0,0,0-6.4,8.4A29.08,29.08,0,0,0,0,143.91c0,1.11.05,2.26.15,3.44a4.35,4.35,0,0,0,.76,2.06A9.84,9.84,0,0,0,3.73,152a41,41,0,0,0,8.55,4c10.92,3.89,29,7.45,51.41,7.46,18.2,0,33.57-2.36,44.53-5.33a68.76,68.76,0,0,0,13-4.73,19.59,19.59,0,0,0,3.88-2.52,7.14,7.14,0,0,0,1.33-1.47,4.35,4.35,0,0,0,.76-2.06c.1-1.18.15-2.33.15-3.43A27.22,27.22,0,0,0,123.08,128.44ZM38.77,76.35l-.25-1.41-1.35-.48a8.66,8.66,0,0,1-2.09-1,8.07,8.07,0,0,1-2.51-3.08,40.54,40.54,0,0,1-2.85-7.73,13.7,13.7,0,0,1-.61-3.7,5.69,5.69,0,0,1,.14-1.31,8.61,8.61,0,0,0,4.33,1.51C41,34.11,79.88,39.56,81.84,31c-.38,9.86,9,6.21,12.17,27.55a33.26,33.26,0,0,0,2.12-2.84,2.65,2.65,0,0,1,1,.37,2,2,0,0,1,.73.77,4.26,4.26,0,0,1,.41,2.06,13.7,13.7,0,0,1-.61,3.7c-1.36,4.8-2.59,7.59-3.71,9.14a6.68,6.68,0,0,1-1.64,1.67,8.74,8.74,0,0,1-2.1,1l-1.35.48-.25,1.41C87,85.21,82.46,90.18,79.09,93.94l-.63.7V106a6.94,6.94,0,0,0,1.26,3.89L72.1,124.21l-9.3,13.93-6.71-12.83h0l-.32-.6-.09-.16-7.91-14.9A6.78,6.78,0,0,0,48.93,106V94.64l-.64-.7C44.92,90.18,40.35,85.2,38.77,76.35ZM40.3,115.5A29.46,29.46,0,0,0,44,113.35a17.7,17.7,0,0,0,2.19-1.85l7.07,13.32L36.65,140Zm24,43h-.62c-5.32,0-10.35-.23-15.12-.59v-2.62l-.36-22.81,6.17-5.63,9.93,19Zm14.91-3.2v2.6c-4,.32-8.25.51-12.67.57V145.31L64,140.41l9.1-13.63L79.58,133Zm-4.91-30.47,7-13.14a19.18,19.18,0,0,0,3.8,2.74c.72.41,1.48.77,2.24,1.13l4.51,26.09Zm-15,27.2a1.83,1.83,0,1,0-1.82-1.82A1.83,1.83,0,0,0,59.29,152Z"/></g></g></g></g></svg>