<svg xmlns="http://www.w3.org/2000/svg" viewBox="0 0 609 190"><defs><style>.cls-1{isolation:isolate;}.cls-2{fill:#22a2a2;}.cls-3{fill:#f4f5f9;}</style></defs><g id="Layer_2" data-name="Layer 2"><g id="早わかりMD_ADシステムズのこと0106.jpg5" data-name="早わかりMD&amp;ADシステムズのこと0106.jpg5" class="cls-1"><g id="データ"><g id="角丸長方形_1_のコピー_4" data-name="角丸長方形 1 のコピー 4"><path class="cls-2" d="M18,26A13,13,0,1,0,5,13,13,13,0,0,0,18,26Zm7,3H10A10,10,0,0,0,0,39V73H35V39A10,10,0,0,0,25,29Zm57-3A13,13,0,1,0,69,13,13,13,0,0,0,82,26Zm7,3H74A10,10,0,0,0,64,39V73H99V39A10,10,0,0,0,89,29Zm57-3a13,13,0,1,0-13-13A13,13,0,0,0,146,26Zm7,3H138a10,10,0,0,0-10,10V73h35V39A10,10,0,0,0,153,29Zm57-3a13,13,0,1,0-13-13A13,13,0,0,0,210,26Zm7,3H202a10,10,0,0,0-10,10V73h35V39A10,10,0,0,0,217,29Zm55-3a13,13,0,1,0-13-13A13,13,0,0,0,272,26Zm7,3H264a10,10,0,0,0-10,10V73h35V39A10,10,0,0,0,279,29Zm57-3a13,13,0,1,0-13-13A13,13,0,0,0,336,26Zm7,3H328a10,10,0,0,0-10,10V73h35V39A10,10,0,0,0,343,29ZM31,130a13,13,0,1,0-13,13A13,13,0,0,0,31,130Zm-6,16H10A10,10,0,0,0,0,156v34H35V156A10,10,0,0,0,25,146Zm70-16a13,13,0,1,0-13,13A13,13,0,0,0,95,130Zm-6,16H74a10,10,0,0,0-10,10v34H99V156A10,10,0,0,0,89,146ZM400,26a13,13,0,1,0-13-13A13,13,0,0,0,400,26Zm7,3H392a10,10,0,0,0-10,10V73h35V39A10,10,0,0,0,407,29Zm57-3a13,13,0,1,0-13-13A13,13,0,0,0,464,26Zm7,3H456a10,10,0,0,0-10,10V73h35V39A10,10,0,0,0,471,29Zm55-3a13,13,0,1,0-13-13A13,13,0,0,0,526,26Zm7,3H518a10,10,0,0,0-10,10V73h35V39A10,10,0,0,0,533,29Zm57-3a13,13,0,1,0-13-13A13,13,0,0,0,590,26Zm7,3H582a10,10,0,0,0-10,10V73h35V39A10,10,0,0,0,597,29ZM159,130a13,13,0,1,0-13,13A13,13,0,0,0,159,130Zm-6,16H138a10,10,0,0,0-10,10v34h35V156A10,10,0,0,0,153,146Zm70-16a13,13,0,1,0-13,13A13,13,0,0,0,223,130Zm-6,16H202a10,10,0,0,0-10,10v34h35V156A10,10,0,0,0,217,146Zm68-16a13,13,0,1,0-13,13A13,13,0,0,0,285,130Zm-6,16H264a10,10,0,0,0-10,10v34h35V156A10,10,0,0,0,279,146Zm70-16a13,13,0,1,0-13,13A13,13,0,0,0,349,130Zm-6,16H328a10,10,0,0,0-10,10v34h35V156A10,10,0,0,0,343,146Z"/></g><g id="長方形_40" data-name="長方形 40"><path class="cls-3" d="M402,143a13,13,0,1,0-13-13A13,13,0,0,0,402,143Zm7,3H394a10,10,0,0,0-10,10v34h35V156A10,10,0,0,0,409,146Zm57-3a13,13,0,1,0-13-13A13,13,0,0,0,466,143Zm7,3H458a10,10,0,0,0-10,10v34h35V156A10,10,0,0,0,473,146Zm55-3a13,13,0,1,0-13-13A13,13,0,0,0,528,143Zm7,3H520a10,10,0,0,0-10,10v34h35V156A10,10,0,0,0,535,146Zm57-3a13,13,0,1,0-13-13A13,13,0,0,0,592,143Zm7,3H584a10,10,0,0,0-10,10v34h35V156A10,10,0,0,0,599,146Z"/></g></g></g></g></svg>