<svg xmlns="http://www.w3.org/2000/svg" viewBox="0 0 107.43 136.83"><defs><style>.cls-1{isolation:isolate;}.cls-2{fill:#22a2a2;}</style></defs><g id="Layer_2" data-name="Layer 2"><g id="早わかりMD_ADシステムズのこと0106.jpg5" data-name="早わかりMD&amp;ADシステムズのこと0106.jpg5" class="cls-1"><g id="データ"><g id="シェイプ_10" data-name="シェイプ 10"><path class="cls-2" d="M51.37,23.77A11.89,11.89,0,1,0,39.54,11.89,11.86,11.86,0,0,0,51.37,23.77ZM103.49,52.3,70.42,15.65c-12.7,7.83-13,18.56-13,18.56L57.5,50.8,35.64,58.85l3.9,7.53,27-6.45a5.79,5.79,0,0,0,3.91-3.19l1.08-2.31L83.4,65.3v71.53H96.1l11.15-71.92A15.36,15.36,0,0,0,103.49,52.3ZM0,107.84H62.62v-8.7H0ZM11.69,95.66A9.71,9.71,0,1,0,2,86,9.69,9.69,0,0,0,11.69,95.66Zm14.72,0H48.62A8.72,8.72,0,0,0,53.73,94l.23-.17a8.36,8.36,0,0,0,2.35-10.24l-3.79-7.87,7.89-2.61L56.85,65.8,44.44,69.28s-5.77,1.07-5.19,6.48L41,80H34.25l0-10.87-7-.65L24.53,84.28S22.15,94.94,26.41,95.66Z"/></g></g></g></g></svg>