<svg xmlns="http://www.w3.org/2000/svg" viewBox="0 0 129.22 137.09"><defs><style>.cls-1{isolation:isolate;}.cls-2{fill:#22a2a2;}</style></defs><g id="Layer_2" data-name="Layer 2"><g id="早わかりMD_ADシステムズのこと0106.jpg5" data-name="早わかりMD&amp;ADシステムズのこと0106.jpg5" class="cls-1"><g id="データ"><g id="シェイプ_12" data-name="シェイプ 12"><path class="cls-2" d="M128.72,125.92l-.5-.59a1.87,1.87,0,0,0-2.72-.24L103.89,99.28a2.87,2.87,0,0,0-2.53-1c-8.24-11.41-12.48-37.07-14-51.42A47.23,47.23,0,0,0,76,17.06,46.93,46.93,0,0,0,48.27.6C37.44-1.28,27.2,1.29,19.42,7.83S7.35,24,7.31,35.05A47.17,47.17,0,0,0,18.66,65.27a47.09,47.09,0,0,0,26.8,16.28c13.67,3.9,38.37,12.56,48.44,22.93a2.92,2.92,0,0,0,.52,2.76L116,133.06a2,2,0,0,0-.24,2.73l.5.59a2.06,2.06,0,0,0,2.83.27l9.47-8A2,2,0,0,0,128.72,125.92ZM77.26,41.66h-.07c0,.2.14,2.3.49,5.65,0,1.09-.1,2.18-.21,3.24l-5-5.91,4.6-3.87A6.87,6.87,0,0,0,77.26,41.66Zm-31.52.21L36.12,50,27.17,39.28l9.62-8.09ZM39,29.32,48.93,21l9,10.68L48,40ZM47.6,44.09l8.7,10.39-9.63,8.09L38,52.19Zm2.22-1.86,9.92-8.34,8.69,10.38-9.91,8.34ZM70.3,46.5l6.51,7.77a23.57,23.57,0,0,1-6.87,12L60.38,54.84Zm6-8.89-5.7,4.79L62,32l8.14-6.85A40.32,40.32,0,0,1,76.35,37.61Zm-8.07-14.7L60.1,29.79l-9-10.68L57.28,14A38.55,38.55,0,0,1,68.28,22.91ZM54.43,12.56l-5.14,4.33-5.94-7.1A30.28,30.28,0,0,1,54.43,12.56ZM39.57,9.79l7.5,9-9.92,8.34L26.6,14.49A23.43,23.43,0,0,1,39.57,9.79ZM24.39,16.37,34.93,29l-9.62,8.09-7.53-9A25.2,25.2,0,0,1,24.39,16.37ZM18,43.21a34.55,34.55,0,0,1-.89-11.43l6,7.14Zm.87,3L25,41.15l9,10.68-8.14,6.84A38.78,38.78,0,0,1,18.87,46.26Zm8.8,14.6,8.09-6.81,8.69,10.39-5.64,4.75A40.2,40.2,0,0,1,27.67,60.86Zm19.9,11.27C45,71.41,43.34,71,42.75,70.85a7.19,7.19,0,0,0-1-.36l4.56-3.83,5,6C50.16,72.46,48.83,72.37,47.57,72.13Zm7.51.48L48.54,64.8l9.62-8.09,9.55,11.4A25.06,25.06,0,0,1,55.08,72.61ZM68.29,79A33.07,33.07,0,0,0,80.84,68.44a151.74,151.74,0,0,0,4.61,18.28A151.66,151.66,0,0,0,68.29,79Zm-46.11,8.7A21.94,21.94,0,0,0,6.55,94.16c-.43.43-.83.87-1.22,1.33.49.47.69.73,1.16.73.1,0,.31,0,.31-.07h0a109.48,109.48,0,0,1,15.14-1.56,15.36,15.36,0,0,1,15.34,15.23,15.16,15.16,0,0,1-15.12,15.23,142.1,142.1,0,0,1-14.92-1.53h0l-.33,0a2.21,2.21,0,0,0-1.5.79c.35.42.73.82,1.12,1.21a22.12,22.12,0,1,0,15.63-37.8ZM8.25,120.46a137,137,0,0,0,14,1.43,12.07,12.07,0,0,0,12-12.07A12.34,12.34,0,0,0,21.91,97.76,103.25,103.25,0,0,0,7.72,99.2h0a4.3,4.3,0,0,1-1.26.18,4.68,4.68,0,0,1-3.17-1.33,22.36,22.36,0,0,0,.2,23.67,5.1,5.1,0,0,1,3.43-1.4A9.37,9.37,0,0,1,8.25,120.46Z"/></g></g></g></g></svg>