<svg xmlns="http://www.w3.org/2000/svg" width="1480" height="1048" viewBox="0 0 740 524">
  <defs>
    <style>
      .cls-1 {
        font-size: 9.535px;
        text-anchor: middle;
        font-family: "Noto Sans JP";
        font-weight: 700;
      }

      .cls-1, .cls-2 {
        fill: #fff;
      }

      .cls-2, .cls-3, .cls-4 {
        fill-rule: evenodd;
      }

      .cls-3, .cls-4 {
        fill: none;
        stroke: #fff;
      }

      .cls-3 {
        stroke-width: 6px;
      }

      .cls-4 {
        stroke-linecap: round;
        stroke-width: 4px;
        stroke-dasharray: 0.001 8;
      }
    </style>
  </defs>
  <text id="お客様" class="cls-1" transform="matrix(2.075, 0, 0, 2.075, 101.146, 68.673)">お客様</text>
  <text id="保険会社" class="cls-1" transform="matrix(2.075, 0, 0, 2.075, 637.303, 68.673)">保険会社</text>
  <path id="シェイプ_4" data-name="シェイプ 4" class="cls-2" d="M666.729,140.83V77.013H629.7V98.64H612.415v42.19h-6.058v5.434h66.429V140.83h-6.057ZM633.515,80.815h29.4v58.047h-29.4V80.815Zm-15.519,24h6.124v6.111H618v-6.111Zm0,12.223h6.124v6.112H618v-6.112Zm0,12.222h6.124v6.111H618v-6.111Zm20.623-17.625h6.807v6.79h-6.807v-6.79Zm12.388,0h6.806v6.79h-6.806v-6.79ZM638.619,99.416h6.807v6.79h-6.807v-6.79Zm12.388,0h6.806v6.79h-6.806v-6.79ZM638.619,87.195h6.807v6.789h-6.807V87.195Zm12.388,0h6.806v6.789h-6.806V87.195Zm-12.388,36.664h6.807v6.792h-6.807v-6.792Zm12.388,0h6.806v6.792h-6.806v-6.792Z" transform="translate(-1)"/>
  <text id="保険代理店" class="cls-1" transform="matrix(2.075, 0, 0, 2.075, 370.213, 390.169)">保険代理店</text>
  <path id="シェイプ_3" data-name="シェイプ 3" class="cls-2" d="M427.457,173.564H390.629a3.389,3.389,0,0,0-3.388,3.39v10.764h18.243v9.474h18.459a1.012,1.012,0,0,1,1.009,1.012v6.839a1.014,1.014,0,0,1-1.008,1.012H405.486V246.03H387.242v3.294a3.391,3.391,0,0,0,3.382,3.4h36.834a3.389,3.389,0,0,0,3.388-3.39v-72.37a3.389,3.389,0,0,0-3.381-3.4h-0.008Zm-3.783,8.189H394.209a1.182,1.182,0,0,1,0-2.363h29.465a1.182,1.182,0,0,1,0,2.363h0ZM424.952,222H410.221v-4.725h14.731V222Zm0-7.834H410.221v-4.725h14.731v4.725Zm-24.233,27.078V192.5H322.055v48.749h31.823V247.7h-7.51a1.677,1.677,0,0,0-1.669,1.673v1.674a1.675,1.675,0,0,0,1.669,1.671H376.4a1.674,1.674,0,0,0,1.669-1.671v-1.674A1.677,1.677,0,0,0,376.4,247.7h-7.509v-6.452h31.825Zm-72.7-5.972v-36.8h66.747v36.8H328.014Z" transform="translate(-1)"/>
  <path id="長方形_39" data-name="長方形 39" class="cls-3" d="M371.989,323.332a98.922,98.922,0,1,1-98.922,98.921A98.921,98.921,0,0,1,371.989,323.332Z" transform="translate(-1)"/>
  <path id="長方形_39_のコピー_3" data-name="長方形 39 のコピー 3" class="cls-3" d="M102.922,2.825A98.922,98.922,0,1,1,4,101.747,98.922,98.922,0,0,1,102.922,2.825Z" transform="translate(-1)"/>
  <path id="シェイプ_6" data-name="シェイプ 6" class="cls-2" d="M60.915,77.016a7.008,7.008,0,1,1-7,7.008A7,7,0,0,1,60.915,77.016Zm31.492,25.17a5.642,5.642,0,1,1-5.636,5.642A5.639,5.639,0,0,1,92.407,102.186Zm26.659,0a5.642,5.642,0,1,1-5.636,5.642A5.639,5.639,0,0,1,119.066,102.186Zm27.269-14.368a5.4,5.4,0,1,1-4.027,6.482A5.393,5.393,0,0,1,146.335,87.818Zm4.3,11.809-5.22,0c-1.385,0-3.476,1.187-4.726,2.442L131.9,110.5a2.814,2.814,0,0,0-.558.763,2.884,2.884,0,0,0-1.7.392l-5.433,3.195h-7.477a6.555,6.555,0,0,0-4.154,1.681l-7.218,6.349-6.853-6.306a6.556,6.556,0,0,0-4.648-1.724H86.717L80.4,111.615a3.241,3.241,0,0,0-1.263-.351,3.243,3.243,0,0,0-.456-1.151l-8.773-13.7a8.537,8.537,0,0,0-7.342-4H56.386a7.371,7.371,0,0,0-7.365,7.377v13.193a6.532,6.532,0,0,0,4.075,6.055l0.565,23.505a3.7,3.7,0,0,0,3.7,3.554h0a3.7,3.7,0,0,0,3.7-3.705h0v-23.1h1.014v23.1a3.7,3.7,0,0,0,3.7,3.7h0a3.7,3.7,0,0,0,3.7-3.557l1.3-32.284,2.553,3.52a3.253,3.253,0,0,0,2.416,1.329,3.247,3.247,0,0,0,1.709,2.3l7.616,3.9v21.677a3.27,3.27,0,0,0,3.268,3.272h0a3.27,3.27,0,0,0,3.268-3.272V131.6h1.56v11.377a3.268,3.268,0,1,0,6.536,0V126.5l3.29,3.027a3.234,3.234,0,0,0,2.2.856H105.5a3.232,3.232,0,0,0,2.167-.833l2.885-2.593-2.079,10.39h3.6v6.185a2.718,2.718,0,0,0,2.717,2.72h0a2.718,2.718,0,0,0,2.717-2.72h0v-6.185h1.627v6.185a2.718,2.718,0,0,0,2.717,2.72h0a2.718,2.718,0,0,0,2.717-2.72h0v-6.185h3.6l-3.148-16.207,7.582-4.459a2.9,2.9,0,0,0,1.183-1.333,2.793,2.793,0,0,0,1.887-.662l3.841-3.253,1.137,31.892a2.869,2.869,0,1,0,5.736-.128V124.387h0.786v18.805a2.787,2.787,0,0,0,2.664,2.905c0.069,0,.137,0,0.2,0h0a2.769,2.769,0,0,0,2.865-2.671c0-.035,0-0.07,0-0.1l0.442-20.669a5.657,5.657,0,0,0,3.486-5.224V106.005A6.379,6.379,0,0,0,150.634,99.627Z" transform="translate(-1)"/>
  <path id="長方形_39_のコピー_4" data-name="長方形 39 のコピー 4" class="cls-3" d="M639.078,2.825a98.922,98.922,0,1,1-98.922,98.922A98.922,98.922,0,0,1,639.078,2.825Z" transform="translate(-1)"/>
  <path id="シェイプ_2" data-name="シェイプ 2" class="cls-4" d="M199.865,99.768H543.124" transform="translate(-1)"/>
  <path id="シェイプ_2_のコピー" data-name="シェイプ 2 のコピー" class="cls-4" d="M431.523,342.433l161.569-161.57" transform="translate(-1)"/>
  <path id="シェイプ_2_のコピー_2" data-name="シェイプ 2 のコピー 2" class="cls-4" d="M309.488,342.433l-161.57-161.57" transform="translate(-1)"/>
  <path id="シェイプ_5" data-name="シェイプ 5" class="cls-2" d="M395.488,402.96H331.42V426.6h3.487v35.72h74.164V426.6h3.487V402.96h-17.07ZM385.962,458.7h-8.683v-20.92h8.684V458.7Zm12.243,0h-8.684v-20.92h8.684V458.7Zm7.307,0.059h-3.749V434.225H373.721v24.537H338.466V426.6h67.046v32.163ZM409,423.042H334.978v-2.885H409v2.885Zm0-13.638H334.978v-2.885H409V409.4Z" transform="translate(-1)"/>
</svg>
